<?xml version="1.0" standalone="no"?>
<!DOCTYPE svg PUBLIC "-//W3C//DTD SVG 20010904//EN"
 "http://www.w3.org/TR/2001/REC-SVG-20010904/DTD/svg10.dtd">
<svg version="1.0" xmlns="http://www.w3.org/2000/svg"
 width="640.000000pt" height="640.000000pt" viewBox="0 0 640.000000 640.000000"
 preserveAspectRatio="xMidYMid meet">
<metadata>
Created by potrace 1.14, written by Peter Selinger 2001-2017
</metadata>
<g transform="translate(0.000000,640.000000) scale(0.100000,-0.100000)"
fill="#000000" stroke="none">
<path d="M2503 5979 c-235 -30 -445 -128 -644 -299 -451 -389 -809 -1078 -948
-1825 -39 -209 -52 -341 -58 -587 -10 -422 39 -764 160 -1113 216 -625 685
-1179 1247 -1471 239 -125 461 -197 740 -240 159 -25 479 -25 645 0 685 104
1260 470 1630 1036 65 99 174 321 220 444 50 137 109 375 132 531 27 196 25
609 -5 795 -117 716 -516 1404 -1121 1930 -343 298 -719 524 -1106 665 -314
114 -655 165 -892 134z m460 -223 c204 -41 365 -94 567 -185 116 -53 299 -152
380 -208 19 -13 53 -36 75 -51 430 -292 791 -669 1048 -1093 42 -70 177 -330
177 -342 0 -3 13 -34 29 -69 38 -86 65 -163 101 -293 138 -498 109 -1079 -77
-1545 -285 -714 -925 -1205 -1696 -1300 -125 -15 -383 -13 -517 5 -581 76
-1095 392 -1489 913 -253 335 -416 744 -476 1197 -19 142 -27 484 -14 645 45
590 225 1150 524 1627 259 412 551 642 900 709 91 17 361 12 468 -10z"/>
</g>
</svg>
